<?xml version="1.0" standalone="no"?>
<!DOCTYPE svg PUBLIC "-//W3C//DTD SVG 20010904//EN"
 "http://www.w3.org/TR/2001/REC-SVG-20010904/DTD/svg10.dtd">
<svg version="1.0" xmlns="http://www.w3.org/2000/svg"
 width="500.000000pt" height="500.000000pt" viewBox="0 0 500.000000 500.000000"
 preserveAspectRatio="xMidYMid meet">

<g transform="translate(0.000000,500.000000) scale(0.100000,-0.100000)"
fill="#000000" stroke="none">
<path d="M1872 3660 c-103 -52 -178 -130 -216 -224 -14 -36 -40 -85 -57 -109
-18 -23 -28 -33 -24 -22 32 83 71 276 61 301 -9 24 -53 16 -76 -13 -12 -15
-42 -69 -67 -120 -43 -86 -47 -99 -47 -171 -1 -50 5 -93 16 -122 l18 -45 -34
-82 -33 -82 -6 137 c-8 151 -12 178 -32 186 -27 10 -56 -29 -76 -99 -43 -157
-34 -261 34 -361 29 -44 31 -54 25 -94 -3 -25 -7 -65 -8 -90 -1 -43 -2 -42
-34 55 -63 186 -86 224 -121 195 -23 -19 -29 -77 -16 -179 15 -122 44 -187
115 -254 51 -50 54 -56 65 -124 6 -40 11 -75 11 -79 0 -5 -14 14 -31 42 -17
27 -56 82 -87 122 -42 55 -61 72 -76 70 -43 -6 -24 -132 39 -258 29 -57 101
-124 166 -155 46 -21 53 -29 90 -106 l40 -83 -53 50 c-84 79 -194 155 -212
148 -67 -26 84 -254 206 -313 26 -12 72 -25 102 -28 53 -5 58 -8 97 -59 83
-108 228 -229 368 -308 80 -46 222 -108 229 -101 3 2 -12 12 -34 21 -150 61
-309 157 -413 251 l-54 49 -2 119 c-2 108 -5 130 -36 220 -27 80 -38 101 -55
103 -31 4 -42 -16 -52 -98 -8 -68 -4 -126 14 -175 8 -23 -43 43 -71 92 -18 31
-18 33 8 120 23 76 27 106 27 213 0 130 -6 150 -42 150 -37 0 -106 -186 -94
-253 5 -28 4 -28 -9 8 -9 22 -22 61 -29 86 -14 46 -14 47 21 95 54 76 79 132
108 238 26 101 26 130 -2 140 -34 14 -130 -105 -158 -197 -14 -42 -14 -41 -14
48 l-1 90 36 24 c57 39 129 125 182 217 49 85 55 117 25 128 -34 13 -149 -71
-195 -143 -32 -51 -32 -47 -1 69 l14 55 85 39 c107 49 264 184 264 227 0 36
-19 41 -82 22 -67 -19 -116 -44 -159 -80 l-33 -28 28 50 c74 129 114 173 199
222 101 57 302 248 291 276 -10 28 -55 20 -142 -23z m-87 -149 c8 -27 -11 -54
-59 -85 -50 -33 -70 -34 -61 -3 26 82 103 140 120 88z m-235 -190 c0 -38 -44
-141 -61 -141 -16 0 -29 73 -19 115 17 76 80 96 80 26z m28 -223 c2 -20 -5
-35 -25 -54 -29 -28 -92 -59 -100 -50 -12 12 10 59 44 97 43 47 76 50 81 7z
m-197 -105 c12 -33 3 -123 -15 -148 -11 -16 -14 -15 -31 11 -23 36 -32 128
-15 149 20 24 49 18 61 -12z m89 -208 c21 -26 -16 -92 -73 -129 l-27 -18 0 36
c0 34 18 83 42 114 14 16 43 15 58 -3z m-145 -208 c28 -96 14 -135 -32 -84
-25 27 -53 81 -53 102 0 8 9 24 21 36 27 27 44 13 64 -54z m123 -129 c19 -19
14 -69 -11 -113 -35 -62 -52 -53 -52 26 0 84 28 122 63 87z m-88 -229 c28 -40
55 -108 45 -117 -20 -20 -125 72 -125 109 0 61 39 64 80 8z m180 -118 c5 -11
10 -34 10 -51 0 -36 -25 -100 -38 -100 -25 0 -51 114 -36 154 9 22 51 20 64
-3z m-18 -251 c54 -56 61 -80 22 -80 -67 0 -152 89 -117 123 17 18 51 3 95
-43z m193 -60 c16 -32 21 -125 6 -135 -5 -3 -21 9 -35 27 -53 70 -58 138 -11
138 17 0 29 -9 40 -30z"/>
<path d="M2994 3685 c-7 -18 97 -136 180 -204 34 -27 90 -65 126 -85 70 -38
109 -84 177 -206 l36 -65 -39 36 c-46 44 -80 61 -157 84 -46 13 -61 14 -72 5
-28 -24 -14 -49 72 -129 78 -74 168 -130 245 -155 10 -3 25 -31 37 -72 28 -90
26 -105 -8 -54 -30 45 -85 93 -143 124 -31 17 -39 18 -52 7 -25 -21 -20 -39
39 -137 38 -65 78 -113 135 -167 l80 -75 0 -66 c0 -35 -4 -68 -10 -71 -5 -3
-10 1 -10 10 0 48 -122 213 -151 203 -30 -10 -33 -36 -15 -115 27 -113 50
-171 102 -248 50 -74 50 -77 11 -190 l-14 -40 -5 68 c-6 75 -60 200 -88 204
-40 7 -45 -11 -44 -154 0 -125 3 -146 28 -216 l28 -78 -43 -65 c-23 -35 -43
-63 -45 -61 -2 2 1 19 6 38 13 44 11 132 -3 189 -9 33 -17 46 -33 48 -28 4
-39 -11 -69 -103 -22 -64 -28 -106 -32 -210 l-5 -129 -51 -46 c-109 -98 -302
-215 -426 -258 -19 -7 -32 -14 -29 -17 15 -15 214 82 329 161 112 76 167 125
249 220 68 80 70 81 123 87 71 7 141 44 199 104 58 60 128 169 128 198 0 27
-24 50 -42 39 -42 -25 -179 -134 -211 -168 l-38 -41 34 70 c19 39 37 79 41 91
4 13 21 25 44 33 115 35 208 164 245 339 10 45 9 54 -5 68 -9 9 -23 14 -31 11
-17 -6 -118 -137 -161 -207 -27 -44 -27 -44 -21 -12 4 19 10 57 14 86 6 45 13
58 55 96 90 83 126 176 126 331 0 73 -3 89 -20 104 -10 9 -25 15 -32 12 -16
-6 -87 -179 -103 -251 l-11 -49 -12 93 c-12 87 -12 94 6 114 70 76 90 211 53
357 -15 62 -28 90 -47 107 -22 19 -29 21 -40 10 -16 -17 -38 -226 -30 -287 6
-43 4 -40 -29 39 -20 47 -37 87 -37 90 -1 3 7 31 16 64 28 92 20 173 -30 276
-51 105 -87 150 -121 150 -26 0 -26 0 -20 -68 6 -62 34 -188 53 -237 5 -13 -2
-9 -19 11 -15 18 -40 64 -56 103 -49 121 -131 200 -261 251 -60 24 -89 25 -96
5z m305 -190 c31 -35 49 -80 37 -92 -18 -18 -116 59 -116 91 0 48 37 49 79 1z
m196 -131 c38 -15 57 -101 35 -159 -12 -32 -24 -26 -49 24 -27 52 -36 108 -21
126 14 17 13 17 35 9z m3 -259 c27 -23 69 -102 59 -112 -10 -10 -89 32 -112
59 -28 33 -31 48 -13 66 18 18 33 15 66 -13z m191 -117 c13 -23 14 -34 3 -75
-7 -26 -21 -56 -30 -66 -16 -18 -17 -18 -29 10 -13 30 -17 121 -7 148 10 24
46 14 63 -17z m-95 -207 c34 -38 60 -141 35 -141 -19 0 -87 75 -94 103 -14 54
23 78 59 38z m162 -167 c11 -44 -25 -122 -65 -144 -20 -10 -21 -8 -21 32 0 84
33 154 65 141 9 -3 18 -16 21 -29z m-152 -176 c21 -33 29 -73 22 -113 -10 -49
-30 -44 -60 17 -29 58 -31 70 -16 99 14 25 36 24 54 -3z m116 -197 c13 -26 0
-59 -39 -99 -31 -30 -68 -49 -78 -39 -10 11 9 67 39 111 32 49 60 59 78 27z
m-192 -178 c3 -50 -17 -113 -37 -113 -27 0 -43 134 -19 158 7 7 22 11 33 10
17 -3 21 -12 23 -55z m57 -183 c13 -42 -47 -98 -115 -107 -46 -6 -48 -3 -19
40 51 75 120 110 134 67z m-227 -94 c5 -37 -13 -77 -48 -111 l-28 -27 -7 31
c-14 64 20 145 58 139 16 -2 23 -11 25 -32z"/>
<path d="M2440 3324 c-182 -27 -302 -99 -361 -219 -21 -43 -24 -64 -24 -150 0
-89 3 -106 28 -157 36 -73 103 -141 177 -178 32 -16 127 -57 212 -90 325 -130
408 -207 408 -380 0 -58 -6 -87 -24 -126 -66 -141 -210 -224 -390 -224 -142 0
-233 38 -300 126 -31 40 -104 208 -122 279 -6 26 -21 41 -30 32 -4 -4 43 -252
71 -374 4 -17 20 -27 72 -43 357 -110 679 -24 801 215 34 68 46 153 33 231
-33 185 -143 275 -507 413 -208 78 -264 114 -307 195 -32 60 -32 213 0 272 52
97 155 148 303 148 124 1 190 -23 260 -93 60 -61 74 -85 131 -235 40 -103 45
-113 55 -103 5 5 -56 326 -72 378 -7 23 -164 68 -280 79 -55 5 -101 9 -104 8
-3 0 -16 -2 -30 -4z"/>
<path d="M1736 1005 c20 -30 24 -31 17 -6 -3 11 -11 22 -19 25 -11 4 -11 0 2
-19z"/>
<path d="M3317 1006 c10 -13 20 -20 21 -15 5 12 -17 39 -30 39 -5 0 -1 -11 9
-24z"/>
<path d="M1660 1001 c-15 -28 -3 -49 40 -71 39 -20 55 -43 43 -63 -4 -7 1 -6
10 2 34 28 19 57 -46 90 -22 11 -32 23 -31 39 1 27 -2 28 -16 3z"/>
<path d="M1850 1016 c0 -2 7 -20 15 -39 20 -47 20 -47 -15 -47 -16 0 -30 -4
-30 -8 0 -5 14 -7 30 -4 27 4 32 0 45 -32 8 -20 22 -36 30 -36 12 0 9 17 -15
82 -17 45 -30 83 -30 85 0 2 -7 3 -15 3 -8 0 -15 -2 -15 -4z"/>
<path d="M2013 973 c18 -27 42 -65 54 -85 23 -38 43 -50 43 -24 0 24 -94 155
-112 156 -13 0 -10 -9 15 -47z"/>
<path d="M2146 1004 c-9 -24 -2 -26 12 -4 7 11 8 20 3 20 -5 0 -12 -7 -15 -16z"/>
<path d="M2210 935 c0 -69 3 -85 15 -85 12 0 15 16 15 85 0 69 -3 85 -15 85
-12 0 -15 -16 -15 -85z"/>
<path d="M2286 1005 c4 -8 8 -15 10 -15 2 0 4 7 4 15 0 8 -4 15 -10 15 -5 0
-7 -7 -4 -15z"/>
<path d="M2390 935 c0 -69 3 -85 15 -85 12 0 15 16 15 85 0 69 -3 85 -15 85
-12 0 -15 -16 -15 -85z"/>
<path d="M2478 990 c2 -17 -1 -37 -8 -45 -11 -13 -9 -14 11 -7 27 10 37 46 19
68 -19 22 -27 17 -22 -16z"/>
<path d="M2540 935 c0 -69 3 -85 15 -85 12 0 15 16 15 85 0 69 -3 85 -15 85
-12 0 -15 -16 -15 -85z"/>
<path d="M2628 991 c3 -21 -2 -32 -16 -43 -21 -14 -20 -14 6 -56 16 -24 35
-42 45 -42 16 0 14 6 -12 42 -37 49 -37 54 -11 61 34 9 22 67 -14 67 -1 0 -1
-13 2 -29z"/>
<path d="M2770 1016 c0 -2 7 -20 15 -39 20 -47 20 -47 -15 -47 -16 0 -30 -4
-30 -8 0 -5 14 -7 30 -4 27 4 32 0 45 -32 8 -20 22 -36 30 -36 12 0 9 17 -15
82 -17 45 -30 83 -30 85 0 2 -7 3 -15 3 -8 0 -15 -2 -15 -4z"/>
<path d="M2880 1004 c0 -14 3 -14 15 -4 8 7 15 14 15 16 0 2 -7 4 -15 4 -8 0
-15 -7 -15 -16z"/>
<path d="M2948 935 c-2 -70 0 -85 12 -85 12 0 14 15 12 85 -2 47 -7 85 -12 85
-5 0 -10 -38 -12 -85z"/>
<path d="M3010 1016 c0 -2 7 -9 15 -16 12 -10 15 -10 15 4 0 9 -7 16 -15 16
-8 0 -15 -2 -15 -4z"/>
<path d="M3125 1003 c3 -10 9 -31 12 -47 6 -27 4 -29 -20 -24 -15 3 -27 2 -27
-3 0 -4 15 -9 33 -11 26 -2 34 -9 42 -35 5 -20 16 -33 26 -33 14 0 12 12 -14
85 -19 55 -35 85 -44 85 -10 0 -13 -6 -8 -17z"/>
<path d="M3248 1014 c-5 -4 -8 -19 -8 -33 0 -20 10 -32 46 -54 36 -22 45 -32
41 -48 -4 -16 -3 -18 9 -8 8 6 14 20 14 29 0 19 -39 55 -70 65 -11 3 -20 17
-22 31 -2 14 -6 22 -10 18z"/>
<path d="M1655 880 c9 -31 11 -33 24 -29 5 2 0 15 -11 29 l-21 25 8 -25z"/>
<path d="M3240 872 c0 -14 6 -22 16 -22 14 0 15 3 3 18 -7 9 -15 19 -16 21 -2
2 -3 -5 -3 -17z"/>
</g>
</svg>
